<svg width="256" height="256" viewBox="0 0 256 256" fill="none" xmlns="http://www.w3.org/2000/svg">
<path d="M235.54 150.21C229.08 171.3 216.132 189.815 198.54 203.12C183.095 214.745 164.715 221.835 145.464 223.594C126.213 225.353 106.853 221.712 89.5568 213.079C72.2604 204.447 57.7123 191.164 47.5454 174.723C37.3785 158.281 31.9953 139.331 32 120C31.9305 97.4368 39.2656 75.4736 52.88 57.4802C66.1854 39.8882 84.7003 26.9407 105.79 20.4802C107.18 20.0522 108.66 20.0112 110.072 20.3617C111.483 20.7121 112.773 21.4407 113.801 22.4691C114.83 23.4975 115.558 24.7868 115.909 26.1984C116.259 27.6099 116.218 29.0902 115.79 30.4802C111.178 45.7345 110.792 61.9542 114.671 77.4109C118.551 92.8676 126.551 106.982 137.819 118.251C149.088 129.519 163.203 137.52 178.659 141.399C194.116 145.278 210.336 144.892 225.59 140.28C226.98 139.852 228.46 139.811 229.872 140.162C231.283 140.512 232.573 141.241 233.601 142.269C234.63 143.298 235.358 144.587 235.709 145.998C236.059 147.41 236.018 148.89 235.59 150.28L235.54 150.21Z" fill="black"/>
</svg>
